<svg version="1" xmlns="http://www.w3.org/2000/svg" width="722.667" height="722.667" viewBox="0 0 542.000000 542.000000"><path d="M212 19.5c0 10.7.3 19.4.8 19.4.4-.1 4.8-.1 9.7 0l9 .1V158.3l-9.3 2.4c-5.1 1.3-12.3 3.5-16 4.9-3.7 1.4-7.1 2.6-7.7 2.8-2.4.7-7.3 2.9-13.9 6.3-3.9 2-8.4 4.3-10.1 5.1-4.8 2.4-21.5 14-28 19.5-14.1 11.8-27.7 27.1-38.1 42.7-12.6 18.9-24.5 47.9-27.9 68-.3 1.9-.8 4.2-1 5-2.2 7.8-3.4 38.4-2 51.9 1 9.3 4 26.5 4.9 27.9.3.5.7 2 .9 3.3.3 1.4 1.4 5.4 2.5 8.9 14.8 47.7 50.7 90.2 95.7 113.3 16.4 8.5 40.5 16.6 53.8 18.3 2.3.3 4.8.7 5.6 1 5.2 1.7 36.1 2.4 50.3 1.1 9.1-.8 24.2-3.9 35.3-7.2 48.8-14.7 90.6-49.2 115.1-95.1 5.4-10.1 13.1-29.3 14.9-37 .2-1 .9-3.7 1.5-5.9 4.1-16 5.5-28.5 5.4-49.5-.1-17.7-1.7-30.6-6-47-17.7-67.9-71.5-121.2-139.9-138.6-1.6-.4-3.3-.8-3.7-.9-.5-.2-1.7-.3-2.8-.4-2-.1-2-.8-2-60.1 0-56.5.1-60 1.8-60.1h17.7V0H212v19.5zM290.5 195c9.3 1.3 12 1.8 18.5 3.6 3 .8 6.3 1.7 7.2 1.9 3.7.8 20.2 7.8 26.6 11.2 18.7 10 38.8 27.4 52 45 3.4 4.5 6.2 8.4 6.2 8.6 0 .2 2 3.9 4.5 8.3 4.7 8.2 11.6 24.7 13.5 32.4 2.4 9.7 4.1 17.7 4.6 22 .8 5.7 1.2 32.5.6 37.2-.4 3.6-.5 3.6-6 4.3-3.2.3-7 .8-8.7 1-4.7.7-29.2.7-37.5.1-6.7-.6-16.8-1.8-27-3.2-3.2-.5-35.3-6.9-39-7.8-21.9-5.5-33.3-8.3-46-11.7-8.5-2.2-16.5-4.2-17.8-4.5-1.3-.3-7.8-1.8-14.5-3.3-11.6-2.8-19.5-4.4-26.2-5.6-1.6-.3-4.1-.7-5.5-1-1.4-.3-4.5-.8-7-1.1-2.5-.3-5.2-.7-6-.9-.8-.2-5.1-.7-9.5-1.1-4.4-.3-8.9-.8-10-1-6.2-1.3-43.2-.2-45.7 1.3-2.1 1.2 1.1-17.1 5.2-29.7 17.1-52 60.4-91.6 113-103.4 6.3-1.4 15.3-2.8 20-3.2 4.7-.4 8.6-.8 8.8-.9.6-.5 19 .6 25.7 1.5z"/><path d="M227.5 233.9c-15 6.8-15.2 27.3-.5 34.8 5.4 2.8 10.8 2.9 16.4.3 12.5-5.6 15.4-21.5 5.7-31.1-5.8-5.8-14.2-7.4-21.6-4zM312.5 299.5c-11.2 6-14.7 19-7.9 28.8 11.2 15.8 35.4 7.7 35.4-11.9 0-4.7-4.5-12.6-8.7-15.3-4.9-3.2-14.4-4-18.8-1.6z"/></svg>