<svg xmlns="http://www.w3.org/2000/svg" viewBox="0 0 100 190"><defs><style>.a{fill:none;}</style></defs><path d="M60,91V60h5V50H35V60h5V91a50,50,0,1,0,20,0ZM50,180a40,40,0,1,1,40-40A40,40,0,0,1,50,180Z" transform="translate(0)"/><path class="a" d="M50,178a38,38,0,1,1,38-38A38,38,0,0,1,50,178Z" transform="translate(0)"/><path d="M12.25,135.69a38,38,0,0,0,75.4,9.37C62.82,149.07,37.57,132.43,12.25,135.69Z" transform="translate(0)"/><circle cx="41" cy="115" r="5"/><circle cx="63" cy="132" r="5"/><circle cx="43" cy="34" r="7"/><circle cx="62" cy="10" r="10"/></svg>